<svg width="350" height="350" viewBox="0 0 350 350" fill="none" xmlns="http://www.w3.org/2000/svg">
<path d="M130.581 17.3262L114.927 40.8076H135.923L151.577 17.3262H130.581V17.3262ZM166.365 17.3262L150.712 40.8076H199.288L183.636 17.3262H166.364H166.365ZM198.426 17.3262L214.08 40.8076H235.076L219.421 17.3262H198.426V17.3262ZM118.285 53.1123L152.543 87.3706L135.414 53.1123H118.285V53.1123ZM149.171 53.1123L175.001 104.771L200.83 53.1116H149.171V53.1123ZM214.588 53.1123L197.458 87.3706L231.717 53.1123H214.588ZM122.689 74.9176C74.624 95.3611 40.8066 143.069 40.8066 198.48C40.8066 272.434 101.046 332.673 175.001 332.673C248.955 332.673 309.195 272.435 309.195 198.48C309.195 143.07 275.378 95.3611 227.313 74.9176L206.452 95.7788C250.473 109.172 282.356 149.982 282.356 198.481C282.356 257.93 234.45 305.836 175.001 305.836C115.551 305.836 67.6459 257.929 67.6459 198.481C67.6459 149.982 99.5287 109.172 143.55 95.7795L122.689 74.9189V74.9176Z" fill="black"/>
</svg>
