<svg width="350" height="350" viewBox="0 0 350 350" fill="none" xmlns="http://www.w3.org/2000/svg">
<path d="M67.2272 11.408C54.4768 29.9313 46.8246 47.175 44.7752 61.2229L61.1391 87.9903L80.7062 65.1105C81.2996 50.6094 76.9533 31.8352 67.2272 11.4053V11.408ZM322.998 13.4157C303.543 24.6472 289.237 36.9143 281.341 48.7063L284.588 79.9383L312.103 67.676C318.864 54.8401 322.999 36.0324 322.999 13.4157H322.998ZM260.278 32.0642C253.338 46.4442 248.794 59.9821 246.5 71.9273L259.061 111.361L272.582 87.948L268.139 45.4147H268.159C265.715 40.8588 263.086 36.4049 260.277 32.0642H260.278ZM18.6277 55.2223C18.5423 71.1938 20.2636 85.3701 23.3274 97.1361L51.6111 127.32L53.7474 100.382L31.4451 63.8957L31.4656 63.8738C27.3048 60.8178 23.022 57.9313 18.6277 55.2216V55.2223ZM109.439 62.4219C103.687 64.8172 98.3033 67.3526 93.3104 70.0057L66.4793 101.43L64.3643 128.346L98.8434 101.622C103.432 90.75 107.108 77.5163 109.439 62.4219ZM230.586 77.2053C214.163 116.915 219.539 144.102 235.967 151.375L250.43 126.339L237.036 84.3399C234.947 81.9066 232.796 79.5273 230.584 77.2046L230.586 77.2053ZM330.411 77.3543C327.3 77.3352 324.279 77.4117 321.333 77.5457L283.647 94.3361L270.125 117.77L312.743 108.435C321.559 100.594 330.578 90.2339 339.168 77.6093C336.188 77.4616 333.261 77.3714 330.409 77.3536L330.411 77.3543ZM175.854 83.3152C159.968 99.2006 149.309 114.763 144.73 128.197L155.966 157.528L179.358 138.558C182.568 124.405 181.707 105.16 175.854 83.3152V83.3152ZM11.2148 108.733C13.457 151.642 30.0014 173.886 47.958 173.396L50.2439 144.535L20.1228 112.406C17.1851 111.107 14.2151 109.882 11.2155 108.733H11.2148ZM109.119 116.508C104.869 117.4 100.65 118.441 96.4727 119.628L62.9971 145.562L60.733 174.102C78.8428 179.236 99.8072 160.042 109.118 116.509L109.119 116.508ZM120.098 117.577C117.117 133.255 116.235 147.492 117.108 159.618L139.453 194.481L146.439 168.376L131.122 128.429H131.142C127.611 124.662 123.927 121.042 120.099 117.577H120.098ZM302.896 123.687L261.496 132.723L247.184 157.503C261.322 169.941 288.499 161.628 315.629 126.314C311.416 125.292 307.169 124.415 302.896 123.687V123.687ZM208.09 141.139C201.998 142.452 196.261 143.983 190.872 145.69L158.764 171.687L151.777 197.793L190.53 177.776C197.02 167.915 203.056 155.566 208.089 141.14L208.09 141.139ZM314.132 158.272C296.461 172.165 284.023 186.34 277.881 199.139L285.551 229.58L311.036 213.536C315.907 199.871 317.349 180.664 314.132 158.273V158.272ZM229.816 164.147C206.277 217.176 189.215 272.88 186.771 337.117H199.567C202 275.052 218.416 221.297 241.48 169.339L229.816 164.147L229.816 164.147ZM103.095 168.868C97.5083 211.488 109.736 236.348 127.491 239.108L134.99 211.166L111.191 174.081C108.537 172.276 105.837 170.538 103.095 168.869L103.095 168.868ZM254.682 185.638C249.861 200.843 247.288 214.876 246.714 227.018L264.765 264.338L274.804 239.235L264.359 197.75H264.4C261.461 193.753 258.225 189.711 254.682 185.639L254.682 185.638ZM47.9156 186.686C41.993 237.671 42.358 287.745 56.2473 337.119H69.5363C55.2649 288.739 54.6586 239.351 60.6059 188.159L47.917 186.686H47.9156ZM197.944 194.269C193.423 194.379 189.089 194.638 184.934 195.038L147.314 214.498L139.901 242.121C156.779 250.481 180.875 235.408 197.943 194.269H197.944ZM339.255 219.519C333.054 220.096 327.18 220.922 321.632 221.976L286.662 243.999L276.621 269.058L317.466 253.805C325.081 244.786 332.543 233.246 339.256 219.519H339.255ZM231.719 234.558C221.104 276.215 230.286 302.364 247.59 307.211L258.336 280.359L239.131 240.69C236.786 238.639 234.31 236.599 231.718 234.558H231.719ZM125.268 252.055C116.604 280.242 110.052 308.484 106.918 337.119H119.778C122.859 309.965 129.137 282.957 137.487 255.791L125.268 252.054L125.268 252.055ZM309.839 270.276L270.19 285.102L259.551 311.677C275.312 321.997 301.027 309.895 322.869 271.066C318.536 270.651 314.19 270.388 309.839 270.277V270.276ZM243.701 320.626C242.42 325.899 241.524 331.398 241.202 337.119H253.976C254.284 332.548 255.036 328.091 256.113 323.661L243.702 320.626L243.701 320.626Z" fill="black"/>
</svg>
