<svg width="350" height="350" viewBox="0 0 350 350" fill="none" xmlns="http://www.w3.org/2000/svg">
<path d="M60.9561 17.0625L46.1768 38.2676L224.082 162.285L238.916 141.094L60.9561 17.0625ZM260.791 131.113L228.047 178.076L227.227 178.691C201.797 197.012 181.084 201.592 160.303 202.617C162.148 205.693 164.746 209.385 167.959 213.145C174.453 220.801 183.203 229.346 193.115 237.207C202.617 244.658 213.076 251.357 223.467 256.211L247.666 255.391C245.547 239.326 244.932 220.732 259.971 199.131L292.236 152.92L260.791 131.113ZM290.391 177.051L275.625 198.174L291.074 208.975L305.84 187.783L290.391 177.051ZM60.915 232.695C57.9277 232.695 55.3369 233.584 53.8057 234.678C52.2744 235.771 51.9463 236.66 51.9463 237.344C51.9463 238.027 52.2744 238.916 53.8057 240.01C55.3369 241.104 57.9277 241.992 60.915 241.992C63.9023 241.992 66.4932 241.104 68.0244 240.01C69.5898 238.916 69.9316 238.027 69.9316 237.344C69.9316 236.66 69.5898 235.771 68.0244 234.678C66.4932 233.584 63.9023 232.695 60.915 232.695ZM51.1943 252.451C49.9092 257.236 48.043 261.885 45.4932 267.422C40.667 267.285 35.8408 267.08 31.0078 266.875C21.3213 273.164 15.9414 281.914 13.7812 291.074L39.792 296.611L12.6602 301.465V302.148C13.0293 315 19.4482 325.664 26.5439 328.467C121.201 334.346 214.443 332.773 307.412 329.766C305.977 326.416 304.746 322.725 303.789 318.691L269.609 313.018C269.609 313.018 291.963 309.258 302.012 307.48C301.807 304.746 301.67 301.943 301.67 299.004C301.67 287.178 303.721 276.514 307.48 268.174C307.959 267.012 308.506 265.918 309.121 264.893V264.482C232.9 269.473 155.996 270.498 78.5449 268.447C74.4434 263.252 71.9141 258.125 70.4102 252.588C67.5117 253.682 64.2988 254.297 60.915 254.297C57.4492 254.297 54.1543 253.682 51.1943 252.451V252.451ZM325.664 265.098C325.049 265.098 324.297 265.303 322.998 266.602C321.631 267.832 320.059 270.088 318.691 273.164C315.957 279.385 313.975 288.682 313.975 299.004C313.975 300.508 314.043 302.012 314.111 303.447L328.398 290.664L316.709 319.238C317.324 321.289 317.939 323.203 318.691 324.844C320.059 327.92 321.631 330.176 322.998 331.406C324.297 332.705 325.049 332.91 325.664 332.91C326.279 332.91 327.031 332.705 328.33 331.406C329.697 330.176 331.27 327.92 332.637 324.844C335.371 318.623 337.354 309.326 337.354 299.004C337.354 288.682 335.371 279.385 332.637 273.164C331.27 270.088 329.697 267.832 328.33 266.602C327.031 265.303 326.279 265.098 325.664 265.098V265.098Z" fill="black"/>
</svg>
