<svg width="350" height="350" viewBox="0 0 350 350" fill="none" xmlns="http://www.w3.org/2000/svg">
<path d="M343 73.423C347.228 70.224 350 65.212 350 59.5C350 54.8587 348.156 50.4075 344.874 47.1256C341.592 43.8437 337.141 42 332.5 42C327.859 42 323.408 43.8437 320.126 47.1256C316.844 50.4075 315 54.8587 315 59.5C315.007 62.2047 315.642 64.8708 316.857 67.2874C318.072 69.7039 319.833 71.8045 322 73.423V182H259V238H329V235.921C334.168 233.836 338.595 230.255 341.714 225.636C344.832 221.018 346.499 215.573 346.5 210C346.5 205.163 345.163 200.676 343 196.707V73.423ZM42 119C49.147 119 54.11 120.204 63 119C63 119 34.888 137.662 34.888 161H70C70 161 70.042 122.122 91 98L84 91C84 91 70 98 56 91C56 91 42 91 28 98V91H21V133H28C28 133 28 119 42 119ZM140 119C147.147 119 152.11 120.204 161 119C161 119 132.888 137.662 132.888 161H168C168 161 168.042 122.122 189 98L182 91C182 91 168 98 154 91C154 91 140 91 126 98V91H119V133H126C126 133 126 119 140 119ZM266 49V35H181.16C177.968 20.986 165.487 10.5 150.5 10.5C135.513 10.5 123.032 20.986 119.84 35H35V49H0V336H308V49H266ZM112 77H196V175H112V77ZM14 77H98V175H14V77ZM266 301H35V252H266V301ZM294 175H210V77H294V175ZM238 119C245.147 119 250.11 120.204 259 119C259 119 230.888 137.662 230.888 161H266C266 161 266.042 122.122 287 98L280 91C280 91 266 98 252 91C252 91 238 91 224 98V91H217V133H224C224 133 224 119 238 119Z" fill="black"/>
</svg>
