<svg width="350" height="350" viewBox="0 0 350 350" fill="none" xmlns="http://www.w3.org/2000/svg">
<path d="M52.2705 50.1236C40.8572 57.516 35.6523 69.3326 36.1056 80.843C36.5595 92.3526 42.0364 103.625 50.7297 112.329C51.6016 113.196 52.505 114.031 53.4381 114.831C48.8088 122.576 41.7678 123.7 35.9982 122.068C32.6828 121.13 30.0455 119.109 28.7002 116.695C27.3556 114.279 26.875 111.393 28.7378 106.947L16.9526 102.011C13.8286 109.469 14.3071 117.106 17.5392 122.911C20.7726 128.716 26.3336 132.611 32.5194 134.361C43.1466 137.369 56.37 133.528 63.9784 121.906C70.0414 124.967 76.6414 126.821 83.4116 127.365C83.8737 135.209 86.7243 142.53 91.3646 149.096C87.2192 150.557 83.7138 153.367 81.5071 157.033C75.6173 166.817 79.5063 181.177 93.5008 190.902L100.791 180.41C90.3344 173.144 90.6215 166.663 92.4515 163.621C93.3675 162.1 94.7996 161.061 97.1238 160.804C99.135 160.581 101.947 161.035 105.388 163.128C107.444 164.645 109.569 166.064 111.758 167.381C122.77 174.011 136.234 178.87 151.178 181.448C145.651 185.703 141.737 191.213 138.788 197.475C116.358 191.603 94.5938 197.37 73.8604 221.148C95.4552 226.09 116.373 227.135 135.659 218.796L161.609 291.541C164.619 302.779 183.82 303.095 186.917 291.541L213.024 218.35C232.585 227.161 253.849 226.175 275.816 221.147C254.948 197.218 233.038 191.533 210.458 197.593C207.578 191.219 203.62 185.927 198.399 181.896C214.45 179.46 228.901 174.417 240.587 167.38C243.04 165.906 245.412 164.301 247.693 162.573C250.687 160.965 253.163 160.603 254.979 160.803C257.303 161.061 258.735 162.1 259.65 163.621C261.481 166.663 261.769 173.143 251.31 180.41L258.601 190.902C272.594 181.176 276.484 166.816 270.594 157.032C268.422 153.424 264.988 150.647 260.928 149.17C265.59 142.597 268.459 135.266 268.931 127.41C275.712 126.958 282.34 125.191 288.446 122.209C296.084 133.596 309.169 137.341 319.704 134.361C325.891 132.611 331.452 128.716 334.686 122.911C337.919 117.107 338.395 109.469 335.271 102.011L323.486 106.947C325.349 111.394 324.869 114.28 323.524 116.695C322.179 119.11 319.541 121.131 316.225 122.068C310.575 123.667 303.707 122.619 299.078 115.304C300.202 114.359 301.286 113.367 302.325 112.33C311.018 103.626 316.496 92.3533 316.948 80.8437C317.402 69.3333 312.197 57.5167 300.784 50.1243L293.842 60.8465C301.779 65.9871 304.488 72.6563 304.185 80.3392C303.883 88.0228 299.932 96.6483 293.289 103.301C283.169 113.434 267.692 119.484 249.429 112.032C253.623 109.458 257.192 105.348 259.387 99.9891L247.566 95.1465C245.738 99.6076 243.359 101.31 240.7 102.067C238.043 102.822 234.749 102.384 231.741 100.702C225.726 97.3388 221.093 90.2157 225.953 79.1347L214.255 74.0022C207.606 89.1609 213.383 103.499 223.292 110.456L223.248 110.505C234.141 119.788 245.283 124.857 255.888 126.713C251.919 136.978 246.238 142.748 240.207 145.855C233.863 149.125 226.831 149.468 220.538 147.756C214.245 146.043 208.896 142.205 206.137 137.885C203.378 133.564 202.7 129.172 205.542 123.602L194.161 117.795C189.413 127.102 190.564 137.234 195.369 144.76C200.173 152.286 208.122 157.618 217.183 160.083C219.532 160.721 221.932 161.151 224.356 161.37C211.017 167.192 194.307 170.772 176.174 170.772C158.967 170.772 143.033 167.555 130.053 162.251C131.818 162.007 133.565 161.65 135.284 161.183C144.345 158.718 152.296 153.385 157.1 145.859C161.906 138.333 163.054 128.202 158.306 118.895L146.927 124.701C149.769 130.272 149.091 134.663 146.332 138.984C143.574 143.304 138.225 147.143 131.932 148.855C125.639 150.567 118.609 150.224 112.263 146.955C106.051 143.753 100.213 137.725 96.2311 126.872C106.907 125.189 118.154 120.251 129.16 111.047C139.601 104.338 145.923 89.6046 139.079 74.0016L127.38 79.134C132.241 90.215 127.607 97.3381 121.592 100.701C118.585 102.383 115.292 102.821 112.634 102.065C109.975 101.308 107.594 99.6062 105.767 95.1444L93.9458 99.987C96.121 105.299 99.647 109.384 103.792 111.962C85.4569 119.517 69.9168 113.462 59.7675 103.299C53.1229 96.6463 49.1718 88.0207 48.8696 80.3371C48.5668 72.6535 51.2779 65.9844 59.2145 60.8444L52.2691 50.1216L52.2705 50.1236Z" fill="black"/>
</svg>
