<svg width="350" height="350" viewBox="0 0 350 350" fill="none" xmlns="http://www.w3.org/2000/svg">
<path d="M53.7266 13.8856C39.784 13.8289 26.3575 16.5038 14.2285 22.4087C86.1439 43.0956 145.749 80.5272 197.685 128.388C190.864 97.1214 170.058 68.621 143.425 47.8739C135.808 53.5819 124.472 53.6879 115.291 48.3866C106.129 43.0956 100.573 33.2498 101.683 23.8196C85.8309 17.5053 69.4554 13.9499 53.7252 13.8856H53.7266ZM123.197 18.4145C119.632 18.5279 116.692 20.1064 115.314 22.4941C112.961 26.5697 114.938 33.4146 121.7 37.3199C128.464 41.2253 135.37 39.5156 137.724 35.44C140.075 31.3645 138.12 24.4984 131.357 20.5924C128.821 19.1295 126.254 18.4678 123.923 18.4145C123.681 18.4076 123.435 18.4063 123.198 18.4145H123.197ZM93.6313 68.9361L21.7043 193.585C25.7867 199.364 30.6546 203.354 38.8796 203.882L110.978 78.9344C105.489 75.3045 99.6989 71.9768 93.6313 68.9361V68.9361ZM226.782 73.2086L214.883 80.5777L207.897 126.144L234.087 85.7273L226.782 73.2093V73.2086ZM130.843 115.4L115.911 124.606L125.738 136.442L184.634 133.195L130.843 115.401V115.4ZM274.227 115.869L271.643 116.659L147.848 154.876L145.284 155.688L144.047 158.081L115.121 214.734L112.643 219.604L117.066 222.809L265.085 330.304L272.007 335.324L274.848 327.251L335.389 155.368L337.205 150.241L332.42 147.636L276.601 117.173L274.229 115.87L274.227 115.869ZM272.84 129.669L316.097 153.296L271.001 167.203L248.273 137.252L272.839 129.669H272.84ZM235.262 141.269L258.012 171.219L190.723 191.982L192.623 154.427L235.263 141.268L235.262 141.269ZM179.635 158.443L177.735 196L131.783 210.184L154.193 166.305L179.636 158.443H179.635ZM318.063 166.049L273.438 292.791L276.215 178.973L318.063 166.049H318.063ZM263.334 182.947L260.556 296.766L193.009 204.672L263.333 182.947H263.334ZM180.084 208.646L249.341 303.088L137.445 221.826L180.084 208.646V208.646Z" fill="black"/>
</svg>
