<svg width="64" height="64" viewBox="0 0 64 64" fill="none" xmlns="http://www.w3.org/2000/svg">
<path d="M52.13 40C52.13 53.03 41.571 63.594 28.535 63.594C15.505 63.594 4.93896 53.028 4.93896 40C4.93896 26.96 15.502 16.403 28.534 16.403C41.574 16.403 52.13 26.965 52.13 40Z" fill="#354A52"/>
<path opacity="0.6" d="M15.5829 20.231C9.17892 24.449 4.94092 31.697 4.94092 39.939C4.94092 52.979 15.5039 63.534 28.5359 63.534C28.7699 63.534 28.9959 63.504 29.2259 63.5C23.8189 58.948 6.25092 41.882 15.5829 20.23" fill="#243438"/>
<path d="M43.5399 30.05C43.0772 30.5132 42.5276 30.8806 41.9228 31.1313C41.318 31.382 40.6697 31.511 40.0149 31.511C39.3602 31.511 38.7119 31.382 38.107 31.1313C37.5022 30.8806 36.9527 30.5132 36.4899 30.05C36.0268 29.5871 35.6595 29.0375 35.409 28.4325C35.1585 27.8276 35.0298 27.1792 35.03 26.5244C35.0303 25.8696 35.1597 25.2213 35.4107 24.6166C35.6617 24.0118 36.0294 23.4625 36.4929 23L43.6269 15.865C44.5618 14.9301 45.8298 14.4049 47.1519 14.4049C48.4741 14.4049 49.742 14.9301 50.6769 15.865C51.6118 16.7999 52.137 18.0679 52.137 19.39C52.137 20.7121 51.6118 21.9801 50.6769 22.915L43.5449 30.048" fill="#354A52"/>
<path d="M46.4899 41.4C46.4899 42.1724 46.1831 42.9133 45.6369 43.4594C45.0907 44.0056 44.3499 44.3125 43.5774 44.3125C42.805 44.3125 42.0642 44.0056 41.518 43.4594C40.9718 42.9133 40.6649 42.1724 40.6649 41.4V34.907C40.6577 34.52 40.7278 34.1354 40.8709 33.7758C41.0141 33.4161 41.2275 33.0886 41.4986 32.8124C41.7698 32.5362 42.0933 32.3167 42.4502 32.167C42.8071 32.0172 43.1903 31.94 43.5774 31.94C43.9645 31.94 44.3477 32.0172 44.7046 32.167C45.0616 32.3167 45.3851 32.5362 45.6562 32.8124C45.9274 33.0886 46.1408 33.4161 46.2839 33.7758C46.4271 34.1354 46.4971 34.52 46.4899 34.907V41.4ZM44.6899 10.548C39.8459 10.269 34.9879 10.446 30.1379 10.352C26.2629 10.277 18.8149 10.626 16.2959 6.895C15.7619 6.105 13.8219 6.419 14.4659 7.374C18.0499 12.686 27.5859 11.897 33.1019 11.943C37.4359 11.98 41.7909 11.809 46.1119 12.198C50.4659 12.592 52.5029 14.128 49.2229 17.926C48.4519 18.818 50.1559 19.719 50.7909 18.984C55.9119 13.054 50.5669 10.884 44.6879 10.548" fill="#7BA1AD"/>
<path d="M19.295 6.376L19.283 2.598L17.359 5.068L15.695 1.345L15.1 6.542L10.796 5.946L13.1 8.166L8.00005 9.127L12.894 10.352L7.80005 16.06L14.87 12.179L14.883 15.958L16.809 13.489L18.474 17.211L19.06 12.01L23.37 12.608L21.07 10.39L26.17 9.428L21.273 8.205L26.369 2.497L19.295 6.376Z" fill="#FBB041"/>
<path d="M18.19 7.83201L18.189 5.94901L17.23 7.18001L16.401 5.32501L16.099 7.91501L13.96 7.61801L15.099 8.72401L12.567 9.20401L15.006 9.81401L12.468 12.657L15.989 10.723L15.997 12.605L16.955 11.376L17.782 13.232L18.079 10.641L20.229 10.937L19.079 9.83201L21.618 9.35301L19.179 8.74301L21.717 5.89901L18.19 7.83201Z" fill="white"/>
<path d="M27.916 1.27299L21.886 8.02899L27.655 9.47199L21.757 10.585L24.32 13.063L19.381 12.378L18.679 18.529L16.721 14.156L14.527 16.969L14.515 12.749L6.24902 17.284L12.279 10.528L6.51202 9.08499L12.408 7.96899L9.84402 5.49299L14.786 6.17599L15.489 0.0239868L17.443 4.39999L19.636 1.58599L19.65 5.80899L27.916 1.27299M20.386 10.195L24.672 9.38499L20.662 8.37499L24.82 3.71899L18.945 6.94099L18.936 3.60399L17.279 5.72899L15.906 2.65999L15.422 6.90199L11.753 6.39599L13.786 8.35699L9.49902 9.16699L13.519 10.167L9.35702 14.827L15.235 11.603L15.243 14.94L16.899 12.816L18.271 15.884L18.759 11.641L22.426 12.148L20.394 10.188" fill="#DF394C"/>
</svg>
