<svg width="64" height="64" viewBox="0 0 64 64" fill="none" xmlns="http://www.w3.org/2000/svg">
<path d="M61.778 53.861C62.5829 54.631 63.049 55.6891 63.0738 56.8027C63.0985 57.9163 62.6799 58.9941 61.91 59.799L61.642 60.074C60.04 61.75 56.874 61.263 55.2 59.661L13.467 19.7L19.536 13.355L61.778 53.861Z" fill="#FBB042"/>
<path d="M22.0301 23C20.4661 25.148 21.0931 26.964 22.5851 28.391L55.7051 60.135C57.1951 61.563 59.0371 62.107 61.1151 60.451L22.0301 23Z" fill="#E8A042"/>
<path d="M12.1331 22.89C12.9271 20.653 27.0701 7.52001 29.7411 6.94201C32.4111 6.36401 42.4661 6.27001 43.1631 8.52901C43.6591 10.128 42.8301 10.3 42.4421 10.333C41.9421 10.375 34.2151 12.066 32.9171 13.076C31.6191 14.086 29.8131 20.725 30.1741 21.591C30.5361 22.457 29.9591 23.683 29.8141 23.972C29.6691 24.261 23.8241 29.24 23.3911 29.24C22.9581 29.24 19.2791 28.014 18.5571 29.674C17.8351 31.334 11.3391 25.127 12.1331 22.89" fill="#627C7F"/>
<path d="M18.57 39.05C17.27 40.404 15.34 40.673 14.264 39.643L3.05798 28.92C1.97898 27.889 2.43298 26.212 3.73098 24.855L7.26298 21.164C8.56198 19.805 10.392 19.097 11.47 20.126L22.677 30.851C23.754 31.88 23.4 34.001 22.1 35.362L18.57 39.05Z" fill="#7C9C9F"/>
</svg>
