<svg width="64" height="64" viewBox="0 0 64 64" fill="none" xmlns="http://www.w3.org/2000/svg">
<g clip-path="url(#clip0_99_44092)">
<path d="M54 46.9C54 59 44.2 59 32 59C19.8 59 10 59 10 46.9C10 34.8 19.9 15 32 15C44.1 15 54 34.7 54 46.9Z" fill="#DBB471"/>
<path opacity="0.5" d="M53.9999 46.9C53.9999 42.8 52.8999 37.8 50.8999 33C51.2999 36.1 50.4999 41.6 40.9999 43.7C27.4999 46.6 34.4999 50.4 29.1999 50.9C24.6999 51.3 12.6999 49.5 10.2999 42.7C10.0999 44.2 9.8999 45.6 9.8999 47C9.9999 59 19.8999 59 31.9999 59C44.0999 59 53.9999 59 53.9999 46.9Z" fill="#89664C"/>
<path d="M37.8998 41.1C37.4998 39.1 35.7998 38.5 33.9998 38.4V35.6C34.4998 35.8 35.0998 36.1 35.4998 36.4C36.2998 36.9 37.0998 35.6 36.2998 35.1C35.5998 34.7 34.7998 34.3 33.9998 34V30.7C33.9998 29.7 32.4998 29.7 32.4998 30.7V33.6C31.6998 33.5 30.8998 33.5 30.0998 33.6C29.9998 32.9 29.7998 32.2 29.5998 31.5C29.3998 30.5 27.8998 30.9 28.1998 31.9C28.3998 32.6 28.4998 33.3 28.6998 34C28.5998 34 28.5998 34 28.4998 34.1C26.4998 34.9 25.1998 36.9 26.6998 38.8C27.3998 39.7 28.2998 40 29.2998 40.2C29.3998 41.5 29.3998 42.8 29.3998 44.1C28.6998 43.7 28.0998 43.1 27.5998 42.6C26.8998 41.9 25.8998 43 26.4998 43.7C27.3998 44.7 28.3998 45.4 29.3998 45.9C29.3998 47 29.4998 48.1 29.5998 49.2C29.6998 50.2 31.1998 50.2 31.0998 49.2C30.9998 48.2 30.8998 47.3 30.8998 46.3C31.4998 46.4 32.0998 46.4 32.6998 46.4C32.7998 47.4 32.8998 48.4 32.9998 49.5C33.0998 50.5 34.5998 50.5 34.4998 49.5C34.3998 48.4 34.2998 47.3 34.1998 46.1C36.3998 45.3 38.3998 43.6 37.8998 41.1M32.4998 35.1V38.4C31.9998 38.4 31.5998 38.5 31.1998 38.5H30.6998L30.3998 34.9C31.0998 34.9 31.7998 35 32.4998 35.1ZM28.8998 38.3C28.4998 38.2 28.0998 37.9 27.6998 37.6C26.7998 36.7 28.0998 35.9 28.8998 35.5C28.9998 36.5 29.0998 37.4 29.1998 38.4C29.0998 38.4 28.9998 38.4 28.8998 38.3M32.1998 44.7C31.6998 44.8 31.2998 44.7 30.8998 44.6C30.7998 43.1 30.7998 41.6 30.7998 40C31.3998 40 31.9998 39.9 32.5998 39.9C32.5998 41.5 32.6998 43 32.6998 44.6C32.4998 44.7 32.3998 44.7 32.1998 44.7ZM35.4998 43.6C35.0998 43.9 34.5998 44.1 34.1998 44.3C34.0998 42.8 34.0998 41.4 34.0998 39.9H34.5998C36.4998 40.3 36.9998 42.4 35.4998 43.6" fill="#89664C"/>
<path d="M34 55H31.7V59L41 64L62 57.5V54L54.2999 49.5L34 55Z" fill="#699635"/>
<path d="M32 52.7C32 52.7 34.4 56.6 41.2 60C41.2 60 51.8 59.5 62 52.7C62 52.7 56.1 49.8 54.4 46C54.4 46 50.4 51.6 32 52.7Z" fill="#83BF4F"/>
<path d="M27.5001 54.9L29.7001 54.8L30.0001 58.5L21.3001 64L0.400098 59.5L0.100098 56.2L7.2001 51.3L27.5001 54.9Z" fill="#699635"/>
<path d="M29.2 52.6C29.2 52.6 27.1 56.5 20.8 60.2C20.8 60.2 10.5 60.5 0 55C0 55 5.6 51.8 6.9 48C6.9 48 11.3 53 29.2 52.6" fill="#83BF4F"/>
<path d="M24.2001 53.7C24.2001 53.7 23.9 54.5 25.3 54.6L21.6 57.7C21.6 57.7 19.4 57.5 18.9 59C18.9 59 9.90005 58 4.10005 55.4C4.10005 55.4 5.30005 54.5 3.80005 53.9C3.80005 53.9 5.50005 52.7 5.90005 51.6C5.90005 51.6 7.50005 51.8 8.00005 50.6C8.20005 50.5 14.2001 54.1 24.2001 53.7V53.7Z" stroke="#699635" stroke-miterlimit="10"/>
<path d="M8.7999 55.1C9.84924 55.1 10.6999 54.518 10.6999 53.8C10.6999 53.082 9.84924 52.5 8.7999 52.5C7.75056 52.5 6.8999 53.082 6.8999 53.8C6.8999 54.518 7.75056 55.1 8.7999 55.1Z" fill="#699635"/>
<path d="M19 52.2C19 52.2 16.7 55.2 11.7 59.3L12 62L8.50005 61.2L8.30005 58.3C8.30005 58.3 13.4 53.6 14.5 51.3C14.4 51.3 16.2 51.9 19 52.2ZM42.1 51.5C42.1 51.5 43 53.9 49.8 58.3V61.2L53.7001 60V57C53.7001 57 49.0001 53.7 46.2001 50.4L42.1 51.5" fill="#F9F3D9"/>
<path d="M36.4 48.3L34.2 48.2L34 52.3L42.9 58L63.8 52.3L63.9 48.7L56.6 43.6L36.4 48.3Z" fill="#699635"/>
<path d="M34.6001 45.8C34.6001 45.8 36.8001 50 43.3001 53.8C43.3001 53.8 53.7001 53.8 64.0001 47.4C64.0001 47.4 58.3001 44.1 56.9001 40C56.9001 40 52.6001 45.6 34.6001 45.8" fill="#83BF4F"/>
<path d="M39.1 46.9C39.1 46.9 39.6 47.7 38 48L42.2 51.3C42.2 51.3 44.6 50.7 45.4 52.1C45.4 52.1 55.4 50.3 60 47.9C60 47.9 58.5 47.2 60 46.3C60 46.3 58.2 44.8 57.5 43.8C57.5 43.8 55.8 44.3 54.9 43.1C54.9 43.2 51.3 46.4 39.1 46.9V46.9Z" stroke="#699635" stroke-miterlimit="10"/>
<path d="M46.7999 49.4C46.3999 49.9 45.0999 50.1 43.9999 49.8C42.8999 49.5 42.3999 48.8 42.7999 48.3C43.1999 47.8 44.4999 47.6 45.5999 47.9C46.6999 48.2 47.1999 48.8 46.7999 49.4Z" fill="#699635"/>
<path d="M44.8 45C44.8 45 47.2 48.2 52.3 52.5L52.2001 55.5L55.7001 54.5L55.8 51.3C55.8 51.3 50.6 46.3 49.3 43.9C49.4 43.9 47.7 44.6 44.8 45Z" fill="#F9F3D9"/>
<path d="M46 2C46 8.1 38.1 18 32 18C25.9 18 18 9.1 18 3C18 -3.1 18.9 3 25 3C25.9 3 30.1 0 32 0C33.3 0 37 3 39 3C44.3 3 46 -2.6 46 2Z" fill="#DBB471"/>
<path d="M30.2001 13.3C29.6001 13.7 26.7001 13.4 25.8001 14.1C24.6001 15 26.3001 17.1 25.1001 18.4C22.7001 20.8 20.8001 23.5 21.4001 25C22.4001 27.6 24.3001 20.2 26.0001 23C27.7001 25.8 27.4001 21.1 30.0001 23.5C32.6001 25.9 30.4001 19.2 32.9001 22.1C35.4001 25 35.5001 28.3 37.3001 28.3C39.4001 28.3 35.1001 20.4 37.9001 22.3C40.7001 24.2 43.8001 23.5 41.0001 20.6C40.1001 19.7 38.9001 18.1 37.5001 16.7C37.0001 16.2 37.4001 13.6 36.9001 13.2C36.3001 12.7 34.8001 14.3 34.2001 14C33.0001 13.4 33.4001 14.5 31.6001 14.8C30.4001 15.2 31.4001 12.5 30.2001 13.3" fill="#89664C"/>
<path d="M18.6999 19.2C22.5999 15.5 29.6999 17.6 33.8999 19.4C37.9999 21.2 40.4999 15.5 37.8999 12.6C36.3999 10.9 33.9999 12.9 33.0999 14.1C32.0999 15.3 31.2999 16.6 30.1999 17.8C28.5999 19.6 24.6999 18.1 25.8999 15.6C27.1999 13 32.6999 16 34.4999 16.5C37.9999 17.5 41.6999 17.9 45.1999 16.6C46.3999 16.2 45.8999 14.2 44.6999 14.7C40.7999 16.1 36.8999 15.2 33.1999 14C31.2999 13.4 28.2999 11.8 26.2999 12.7C20.5999 15.4 25.8999 23.1 30.6999 20.1C31.7999 19.4 32.4999 18.3 33.2999 17.3C33.7999 16.7 36.2999 12.9 36.8999 14.8C37.1999 15.8 36.8999 17.6 35.7999 17.9C35.0999 18.2 33.6999 17.2 32.9999 17C31.6999 16.5 30.3999 16.1 28.9999 15.8C25.2999 15 20.2999 15.2 17.3999 17.9C16.3999 18.7 17.7999 20.1 18.6999 19.2" fill="#E8E8E8"/>
<path d="M44.8 0.5C43.8 1.3 42 3 39 3C37 3 33.3 0 32 0C30.1 0 25.9 3 25 3C21.7 3 19.9 1.3 19 0.6C19 0.6 20.1 5.1 23.5 7.4C26 9 25.7 7.1 27 5.3C28.3 3.5 29.2 2.6 31.5 7.1C32.7 9.6 35 0.3 36.8 3.3C40.1 8.8 41.3 5.8 44.8 0.5Z" fill="#89664C"/>
<path d="M52.4 52.4L52.2999 55.4L55.7999 54.4L55.9 51.2C55.9 51.3 53.8 52.1 52.4 52.4ZM49.7999 58.4V61.3L53.7 60.1V57.1C53.6 57 52.5999 57.6 49.7999 58.4M11.7 59.2L12 62L8.49995 61.2L8.29995 58.3C8.19995 58.3 9.59995 58.8 11.7 59.2" fill="#DBB471"/>
</g>
<defs>
<clipPath id="clip0_99_44092">
<rect width="64" height="64" fill="white"/>
</clipPath>
</defs>
</svg>
