<svg width="350" height="350" viewBox="0 0 350 350" fill="none" xmlns="http://www.w3.org/2000/svg">
<path d="M273.438 175H185.938C180.138 175.006 174.577 177.312 170.476 181.413C166.375 185.515 164.068 191.075 164.062 196.875V262.5H43.75V153.125H21.875V328.125H43.75V284.375H306.25V328.125H328.125V229.688C328.108 215.189 322.34 201.289 312.088 191.037C301.836 180.785 287.936 175.017 273.438 175V175ZM306.25 262.5H185.938V196.875H273.438C282.137 196.884 290.478 200.343 296.63 206.495C302.782 212.647 306.241 220.988 306.25 229.688V262.5Z" fill="black"/>
<path d="M103.906 185.938C107.151 185.938 110.323 186.9 113.021 188.702C115.719 190.505 117.822 193.068 119.064 196.065C120.305 199.063 120.63 202.362 119.997 205.544C119.364 208.727 117.802 211.65 115.507 213.945C113.213 216.239 110.289 217.802 107.107 218.435C103.924 219.068 100.626 218.743 97.6279 217.501C94.63 216.259 92.0677 214.157 90.265 211.459C88.4622 208.761 87.5 205.589 87.5 202.344C87.5058 197.994 89.2362 193.825 92.3117 190.749C95.3872 187.674 99.5568 185.943 103.906 185.938ZM103.906 164.062C96.3349 164.063 88.9337 166.308 82.6383 170.514C76.343 174.72 71.4364 180.699 68.539 187.694C65.6416 194.689 64.8835 202.386 66.3606 209.812C67.8377 217.238 71.4836 224.059 76.8373 229.413C82.1911 234.766 89.0121 238.412 96.438 239.889C103.864 241.367 111.561 240.608 118.556 237.711C125.551 234.814 131.53 229.907 135.736 223.612C139.942 217.316 142.188 209.915 142.188 202.344C142.188 192.191 138.154 182.454 130.975 175.275C123.796 168.096 114.059 164.062 103.906 164.062V164.062ZM229.688 65.625H185.938V21.875H164.063V65.625H120.313V87.5H164.063V131.25H185.938V87.5H229.688V65.625Z" fill="black"/>
</svg>
