<svg width="350" height="350" viewBox="0 0 350 350" fill="none" xmlns="http://www.w3.org/2000/svg">
<path d="M234.208 190.896L316.312 272.417L267.895 320.25L186.374 238.729V225.313L220.791 190.896H234.208M247.478 154L233.333 140L163.479 210V238.729L81.3743 320.833L33.541 272.417L115.062 190.896H143.791L155.166 179.521L99.166 123.375H80.2077L39.2285 81.9584L77.4368 43.7501L118.27 84.5834V103.688L174.999 159.688L213.791 120.896L199.791 106.167L218.749 87.0626H179.958L170.479 77.5834L218.749 29.1667L228.374 38.7917V77.5834L247.478 58.3334L295.312 106.167C311.208 122.208 311.208 148.313 295.312 164.208L266.583 134.896L247.478 154V154Z" fill="black"/>
</svg>
