<svg width="44" height="44" viewBox="0 0 44 44" fill="none" xmlns="http://www.w3.org/2000/svg">
<path d="M27.1146 19.4701L6.41628 40.15L3.84961 37.5834L24.5296 16.8851L27.1146 19.4701M35.3279 14.1717L36.4096 13.0901L34.9613 11.6417L36.1346 10.4684L33.5313 7.86505L32.3579 9.03839L30.9096 7.59005L29.8279 8.67172C26.6379 6.06839 23.0446 3.97839 19.1946 2.51172L17.6729 5.79339C20.8813 7.48005 23.8329 9.51505 26.5829 11.9167L25.6663 12.8334L31.1663 18.3334L32.0829 17.4167C34.4846 20.1667 36.5196 23.1184 38.2063 26.3267L41.4879 24.8051C40.0213 20.9551 37.9313 17.3617 35.3279 14.1717V14.1717Z" fill="black"/>
</svg>
