<svg width="350" height="350" viewBox="0 0 350 350" fill="none" xmlns="http://www.w3.org/2000/svg">
<path d="M276.047 22.6386L23.4219 33.1659V64.6194L291.873 54.2944L276.047 22.6372V22.6386ZM263.411 67.7031L242.624 68.5029L249.31 195.519L275.665 190.248L263.411 67.7031ZM171.022 71.2565L158.451 71.7418L156.609 82.4127L138.441 95.2301L138.529 95.8221L138.343 95.7899L136.249 107.916L140.479 108.647L143.635 129.425L165.19 133.147L175.132 114.63L179.361 115.361L181.454 103.234L181.268 103.203L181.552 102.674L168.735 84.5059L171.022 71.2565V71.2565ZM118.082 73.2936L102.482 73.8938L75.5008 111.338L74.3441 133.991L118.082 73.2942V73.2936ZM65.0179 75.3341L43.6385 76.1565L24.0057 262.663L55.2186 267.265L65.0179 75.3348V75.3341ZM161.962 87.5684L171.844 101.575L147.955 97.4497L161.962 87.5684ZM147.937 109.934L167.672 113.342L162.879 122.272L149.46 119.955L147.937 109.934V109.934ZM298.812 198.167L246.562 208.618L215.807 198.365L196.184 217.986H312.023L298.812 198.167ZM121.043 199.717L114.604 213.885H103.402V226.19H109.011L104.038 237.127H88.3633V249.432H98.4463L92.8524 261.736H74.6907V274.041H87.2593L77.9378 294.549H61.0188V306.854H72.3446L66.355 320.03L77.557 325.123L85.8606 306.854H183.904L179.289 294.549H91.4538L100.776 274.041H171.6L166.985 261.736H106.369L111.961 249.432H162.369L157.755 237.127H117.555L122.527 226.19H153.654L150.579 217.986H178.783L182.884 213.885H128.12L132.245 204.809L121.043 199.717V199.717ZM168.336 230.291L195.925 303.87C200.042 298.236 206.691 294.549 214.145 294.549C222.29 294.549 229.478 298.95 233.445 305.486H271.405C275.373 298.95 282.561 294.549 290.707 294.549C297.833 294.549 304.22 297.919 308.366 303.138L326.577 230.291H168.336V230.291ZM214.145 306.854C208.409 306.854 203.891 311.372 203.891 317.108C203.891 322.843 208.409 327.361 214.145 327.361C219.88 327.361 224.398 322.843 224.398 317.108C224.398 311.372 219.88 306.854 214.145 306.854ZM290.707 306.854C284.972 306.854 280.453 311.372 280.453 317.108C280.453 322.843 284.972 327.361 290.707 327.361C296.442 327.361 300.961 322.843 300.961 317.108C300.961 311.372 296.442 306.854 290.707 306.854Z" fill="black"/>
</svg>
