<svg width="44" height="44" viewBox="0 0 44 44" fill="none" xmlns="http://www.w3.org/2000/svg">
<path d="M33.5714 39.1224C31.6086 30.0749 28.1573 28.8752 24.1423 24.2518C21.3545 21.0412 20.6498 19.6215 18.907 16.1496C17.1642 12.6777 16.0195 10.3952 16.0195 10.3952L22.6436 6.66211C22.6436 6.66211 26.772 16.1359 30.5052 19.869C32.382 21.7459 38.4286 27.7409 42.6052 39.1327C43.0005 40.2121 42.6052 43.1718 38.0642 42.5393C34.3105 42.0134 33.8739 40.5077 33.5714 39.1224Z" fill="#FFCC80"/>
<path d="M23.6574 8.89617C22.9699 9.05773 21.9043 9.36711 21.8665 9.34305L21.1068 7.91992L19.254 8.82055L16.4902 11.3402C16.9818 12.3199 17.8309 14.0112 18.9068 16.1527C19.4843 17.3009 20.1168 18.5074 20.7802 19.6865C20.7802 19.6865 20.7734 17.1359 22.6812 15.1971C23.7468 14.1143 24.9637 12.1721 24.9637 11.4709C24.5237 10.5049 24.0837 9.71773 23.6574 8.89617V8.89617Z" fill="#EAAB57"/>
<path d="M10.1789 22.6602C10.4574 22.7874 11.193 23.1345 11.6021 22.6292C12.9427 20.9827 16.4764 14.1317 18.453 13.6574C19.0855 13.5061 19.7283 13.403 20.3505 13.2174C22.9802 12.437 23.9839 11.1102 24.4102 10.3505C24.6577 9.91049 24.6714 9.51861 24.2727 8.81048C23.8292 8.01986 20.7389 1.71205 20.7389 1.71205C20.7389 1.71205 19.6561 1.3958 18.3361 1.8083C17.8411 1.96299 15.9436 2.9633 14.603 3.97048C13.668 4.67173 13.9567 5.3833 11.8771 6.13267C9.42612 7.01955 5.09831 8.01299 2.98081 8.51142C1.74675 8.80361 1.47175 9.1783 1.43737 10.2199C1.3755 12.2411 2.85706 19.367 10.1789 22.6602Z" fill="#F44336"/>
<path d="M17.8758 1.72236C17.2055 1.95611 5.06084 7.45267 2.90897 8.23642C1.71616 8.66955 1.31397 8.4908 1.28303 9.5358C1.22803 11.2339 2.43116 17.2461 7.13366 20.852C6.57678 20.0889 3.22866 16.8405 2.55834 10.5739C2.48616 9.91049 2.86084 9.2883 3.51397 9.14736C5.97522 8.61455 13.5927 6.90267 18.0202 4.82642C19.8318 3.97736 21.303 2.62986 20.7462 1.71892C20.478 1.28236 19.2508 1.23767 17.8758 1.72236V1.72236Z" fill="#C62828"/>
<path d="M8.34299 15.2729C6.7033 13.1348 6.21862 8.52851 6.21862 8.52851C6.21862 8.52851 3.7608 8.04726 2.79487 8.36351C1.5883 8.75882 1.4783 8.55944 1.4508 9.74538C1.40612 11.7598 2.25862 19.006 10.1821 22.6566C10.4605 22.7838 11.1961 23.131 11.6052 22.6257C12.0177 22.1204 12.8874 20.7179 13.6058 19.5663C11.6567 18.7276 10.1924 17.686 8.34299 15.2729V15.2729Z" fill="#E0E0E0"/>
<path d="M3.5088 9.14377C3.99348 9.03721 6.21755 8.52846 6.21755 8.52846L4.97317 7.38721C4.97317 7.38721 3.62911 7.83408 2.45692 8.24314C1.46692 8.58689 1.27786 8.65564 1.2813 9.53564C1.28473 11.2338 2.14067 17.1497 7.13192 20.8519C6.57505 20.0888 3.22692 16.8403 2.55661 10.5738C2.48442 9.91033 2.85567 9.28471 3.5088 9.14377V9.14377Z" fill="#BDBDBD"/>
<path d="M17.141 4.23147C18.9539 3.43503 20.2842 2.47236 20.1124 2.08127C19.9406 1.69019 18.3317 2.0188 16.5188 2.81524C14.706 3.61168 13.3756 4.57436 13.5474 4.96544C13.7192 5.35652 15.3281 5.02791 17.141 4.23147Z" fill="#FFCC80"/>
<path d="M17.2318 6.13938C17.8437 6.25626 18.2253 6.85782 18.514 7.41126C19.2153 8.76563 19.7962 10.1819 20.2465 11.6394C20.274 11.7253 20.2981 11.8147 20.274 11.8972C20.2397 12.0106 20.1228 12.0794 20.0128 12.1309C19.3768 12.4438 18.6481 12.7222 17.9709 12.5091C17.1184 12.2409 16.6818 11.3231 16.3381 10.5016C15.9703 9.6147 15.6025 8.72438 15.2347 7.83751C14.7293 6.6172 16.1043 5.92282 17.2318 6.13938Z" fill="#FF5450"/>
</svg>
