<svg width="44" height="44" viewBox="0 0 44 44" fill="none" xmlns="http://www.w3.org/2000/svg">
<path d="M24.8243 7.01269L24.8579 4.85791L19.3133 4.87441L19.2949 6.95097L20.1731 8.11391C20.4311 8.46423 20.5684 8.88886 20.5642 9.32391L20.5245 26.2321H23.3686L23.5275 9.43147C23.5274 8.94224 23.7087 8.47036 24.0365 8.10719L24.8243 7.01269Z" fill="#A57939"/>
<path d="M21.9975 26.5635V38.7998C20.5889 38.7875 19.0678 38.1373 17.4966 37.2054L17.3457 26.561L21.9975 26.5635Z" fill="#D0CFCE"/>
<path d="M26.6485 26.5635V37.2781L21.9961 39.0081V26.5635H26.6485Z" fill="#9B9B9A"/>
<path d="M24.9335 7.03369L24.9683 4.87158L19.2605 4.88808L19.2422 6.97197L20.1454 8.13919C20.4111 8.49033 20.5526 8.916 20.5487 9.35225L20.5072 26.3106H23.4356L23.5994 9.45614C23.5992 8.96537 23.7858 8.49197 24.1231 8.12758L24.9335 7.03369Z" stroke="black" stroke-width="2" stroke-linecap="round" stroke-linejoin="round"/>
<path d="M26.651 37.2897V26.5708L17.3438 26.5714L17.4947 37.217L17.8039 37.5017C20.2044 39.6376 23.8686 39.6742 26.3106 37.5861L26.651 37.2897Z" stroke="black" stroke-width="2" stroke-linecap="round" stroke-linejoin="round"/>
<path d="M19.459 26.5708L21.1292 30.2949C21.5282 30.8846 22.4094 30.9048 22.836 30.3334L24.5477 26.5708" stroke="black" stroke-width="2" stroke-linecap="round" stroke-linejoin="round"/>
</svg>
