<svg width="350" height="350" viewBox="0 0 350 350" fill="none" xmlns="http://www.w3.org/2000/svg">
<path d="M97.05 9.86984C67.8729 9.88214 40.4635 17.5466 27.8143 31.1891C6.86075 53.7873 28.6606 90.5182 12.283 146.076C6.39523 166.051 62.9906 213.023 95.81 249.726C93.8196 244.315 93.5437 238.422 95.0197 232.849V232.379L95.341 231.397C107.341 194.889 104.014 175.552 94.4865 145.733C90.9359 134.625 91.599 124.043 95.7033 115.1C99.8076 106.157 107.051 98.9824 115.955 93.353C133.762 82.0943 158.471 76.5278 183.161 75.8148C186.236 75.7238 189.313 75.7096 192.389 75.7724C208.406 76.1087 224.047 78.5567 237.442 83.4423C233.483 79.3134 229.005 75.1551 224.219 70.9872C195.611 54.4764 117.915 58.4146 82.0109 82.0102C104.614 51.7776 160.467 36.7604 208.154 57.8062C202.51 53.3881 196.713 49.0138 190.979 44.7318C162.875 27.8128 84.3317 31.63 48.1731 55.3917C70.1814 25.9562 123.731 10.926 170.557 29.5861C150.901 16.0427 123.268 9.85754 97.05 9.86916V9.86984ZM187.818 88.5036C186.385 88.5077 184.958 88.5269 183.525 88.5686C160.576 89.2317 137.601 94.7995 122.791 104.163C115.386 108.844 110.094 114.337 107.303 120.419C104.511 126.501 103.924 133.28 106.661 141.846C116.361 172.197 120.026 196.362 107.793 234.281V234.43L107.473 235.392C106.587 238.085 106.651 243.525 108.711 247.334C110.772 251.142 113.974 254.083 122.212 254.083C127.202 254.083 133.824 254.069 139.965 254.063C154.892 242.765 172.333 230.012 185.338 219.903C192.256 214.528 200.906 213.327 208.666 213.538C216.425 213.75 223.3 215.338 228.191 217.682C241.673 224.138 253.537 228.37 265.789 231.44C265.691 230.777 265.557 230.204 265.404 229.751C254.315 196.956 248.923 167.968 259.658 135.608C262.447 127.201 261.866 120.812 259.187 115.207C256.509 109.603 251.384 104.591 244.063 100.446C231.252 93.1951 212.078 89.03 192.11 88.5474C190.679 88.5142 189.248 88.5005 187.817 88.5064L187.818 88.5036ZM207.193 226.291C206.817 226.291 206.452 226.301 206.083 226.313C200.906 226.482 196.073 227.739 193.179 229.988C176.52 242.935 153.122 259.868 136.933 272.498C133.741 274.988 132.706 276.958 132.446 277.988C132.186 279.02 132.278 279.468 133.002 280.488C134.448 282.529 139.694 285.248 144.9 285.209C182.309 284.932 211.475 293.888 236.095 305.737C249.446 312.163 265.796 312.383 281.704 308.515C297.612 304.646 312.902 296.682 323.424 287.879C333.946 279.075 338.689 269.688 337.823 264.679C337.389 262.174 336.058 259.9 331.841 257.394C327.623 254.89 320.518 252.599 310.179 251.478C276.415 247.819 252.79 243.615 222.679 229.197C220.404 228.107 214.31 226.476 208.324 226.314C207.947 226.302 207.569 226.295 207.192 226.292L207.193 226.291ZM341.349 288.156C338.538 291.465 335.235 294.646 331.628 297.663C319.395 307.899 302.688 316.561 284.738 320.926C266.79 325.292 247.428 325.368 230.563 317.253C207.209 306.012 180.353 297.722 145.008 297.983C139.567 298.024 134.222 296.828 129.755 294.288C131.061 305.403 137.742 314.909 149.815 314.816C184.83 314.55 205.406 323.149 230.351 332.27C269.575 346.612 341.349 324.346 341.349 298.689V288.155V288.156Z" fill="black"/>
</svg>
